<svg id="1b8acb23-8336-4056-a0af-c37bbd1e8735" data-name="9f16e6f3-5c6e-412d-a392-6bbd357dfd17" xmlns="http://www.w3.org/2000/svg" width="129.1" height="83.8" viewBox="0 0 129.1 83.8"><title>documentation</title><polygon points="0.4 0.4 0 83.8 128.7 83.4 129.1 0 0.4 0.4" fill="#2690a8"/><polygon points="6 1 5.6 83 63.3 82.8 63.7 0.8 6 1" fill="#fff"/><path d="M79.8,112.6a1.5,1.5,0,1,0,1.5,1.5A1.5,1.5,0,0,0,79.8,112.6Z" transform="translate(-18.9 -43.3)" fill="#726657"/><path d="M80.9,113.1a1.5,1.5,0,0,1-.6,2l-0.7.2a1.5,1.5,0,0,1-1.1-.4A1.5,1.5,0,1,0,80.9,113.1Z" transform="translate(-18.9 -43.3)" fill="#8c8e90"/><path d="M79.9,106.5a1.5,1.5,0,1,0,1.5,1.5A1.5,1.5,0,0,0,79.9,106.5Z" transform="translate(-18.9 -43.3)" fill="#726657"/><path d="M80.9,107a1.6,1.6,0,0,1,.2.7,1.6,1.6,0,0,1-2.6,1.1A1.5,1.5,0,1,0,80.9,107Z" transform="translate(-18.9 -43.3)" fill="#8c8e90"/><path d="M79.9,100.4a1.5,1.5,0,1,0,1.5,1.5A1.5,1.5,0,0,0,79.9,100.4Z" transform="translate(-18.9 -43.3)" fill="#726657"/><path d="M80.9,100.9a1.5,1.5,0,0,1-2.4,1.8A1.5,1.5,0,1,0,80.9,100.9Z" transform="translate(-18.9 -43.3)" fill="#8c8e90"/><path d="M79.9,94.3a1.5,1.5,0,1,0,1.5,1.5A1.5,1.5,0,0,0,79.9,94.3Z" transform="translate(-18.9 -43.3)" fill="#726657"/><path d="M81,94.7a1.6,1.6,0,0,1,.2.7,1.6,1.6,0,0,1-2.6,1.1A1.5,1.5,0,1,0,81,94.7Z" transform="translate(-18.9 -43.3)" fill="#8c8e90"/><path d="M79.9,88.2a1.5,1.5,0,1,0,1.5,1.5A1.5,1.5,0,0,0,79.9,88.2Z" transform="translate(-18.9 -43.3)" fill="#726657"/><path d="M81,88.6a1.6,1.6,0,0,1,.2.7,1.5,1.5,0,0,1-2.5,1.1A1.5,1.5,0,1,0,81,88.6Z" transform="translate(-18.9 -43.3)" fill="#8c8e90"/><path d="M80,82.1a1.5,1.5,0,1,0,1.5,1.5A1.5,1.5,0,0,0,80,82.1Z" transform="translate(-18.9 -43.3)" fill="#726657"/><path d="M81,82.5a1.5,1.5,0,0,1-2.4,1.8A1.5,1.5,0,1,0,81,82.5Z" transform="translate(-18.9 -43.3)" fill="#8c8e90"/><path d="M80,76a1.5,1.5,0,1,0,1.5,1.5A1.5,1.5,0,0,0,80,76Z" transform="translate(-18.9 -43.3)" fill="#726657"/><path d="M81.1,76.4a1.5,1.5,0,0,1-2.4,1.8A1.5,1.5,0,1,0,81.1,76.4Z" transform="translate(-18.9 -43.3)" fill="#8c8e90"/><path d="M80,69.9a1.5,1.5,0,1,0,1.5,1.5A1.5,1.5,0,0,0,80,69.9Z" transform="translate(-18.9 -43.3)" fill="#726657"/><path d="M81.1,70.3a1.6,1.6,0,0,1,.2.7,1.6,1.6,0,0,1-2.6,1.1A1.5,1.5,0,1,0,81.1,70.3Z" transform="translate(-18.9 -43.3)" fill="#8c8e90"/><path d="M80.1,63.8a1.5,1.5,0,1,0,1.5,1.5A1.5,1.5,0,0,0,80.1,63.8Z" transform="translate(-18.9 -43.3)" fill="#726657"/><path d="M81.1,64.2a1.5,1.5,0,0,1-.6,2l-0.7.2a1.5,1.5,0,0,1-1.1-.4A1.5,1.5,0,1,0,81.1,64.2Z" transform="translate(-18.9 -43.3)" fill="#8c8e90"/><path d="M80.1,57.6a1.5,1.5,0,1,0,1.5,1.5A1.5,1.5,0,0,0,80.1,57.6Z" transform="translate(-18.9 -43.3)" fill="#726657"/><path d="M81.1,58.1a1.5,1.5,0,0,1-2.4,1.8A1.5,1.5,0,1,0,81.1,58.1Z" transform="translate(-18.9 -43.3)" fill="#8c8e90"/><path d="M80.1,51.5A1.5,1.5,0,1,0,81.6,53,1.5,1.5,0,0,0,80.1,51.5Z" transform="translate(-18.9 -43.3)" fill="#726657"/><path d="M81.2,52a1.6,1.6,0,0,1,.2.7,1.6,1.6,0,0,1-2.6,1.1A1.5,1.5,0,1,0,81.2,52Z" transform="translate(-18.9 -43.3)" fill="#8c8e90"/><path d="M83.7,52.4H82.3v0.4h1.4a0.5,0.5,0,0,1,0,.8H82.3V54h1.4a0.7,0.7,0,0,0,.6-0.8h0a0.7,0.7,0,0,0-.6-0.8h0Z" transform="translate(-18.9 -43.3)" fill="#343434"/><path d="M80.9,53.6a0.5,0.5,0,0,1,0-.8h1.4V52.4H80.9a0.7,0.7,0,0,0-.6.8h0a0.7,0.7,0,0,0,.6.8h1.4V53.6H80.9Z" transform="translate(-18.9 -43.3)" fill="#343434"/><path d="M83.7,58.5H82.3v0.4h1.4a0.5,0.5,0,0,1,0,.8H82.3v0.4h1.4a0.7,0.7,0,0,0,.6-0.8h0a0.7,0.7,0,0,0-.6-0.8h0Z" transform="translate(-18.9 -43.3)" fill="#343434"/><path d="M80.9,59.7a0.5,0.5,0,0,1,0-.8h1.4V58.5H80.9a0.7,0.7,0,0,0-.6.8h0a0.7,0.7,0,0,0,.6.8h1.4V59.7H80.9Z" transform="translate(-18.9 -43.3)" fill="#343434"/><path d="M83.6,64.6H82.2V65h1.4a0.5,0.5,0,0,1,0,.8H82.2v0.4h1.4a0.7,0.7,0,0,0,.6-0.8h0a0.7,0.7,0,0,0-.6-0.8h0Z" transform="translate(-18.9 -43.3)" fill="#343434"/><path d="M80.9,65.8a0.5,0.5,0,0,1-.1-0.7h1.5V64.6H80.9a0.7,0.7,0,0,0-.6.8h0a0.7,0.7,0,0,0,.6.8h1.4V65.8H80.9Z" transform="translate(-18.9 -43.3)" fill="#343434"/><path d="M83.6,70.6H82.2V71h1.4a0.5,0.5,0,0,1,0,.8H82.2v0.4h1.4a0.7,0.7,0,0,0,.6-0.8h0a0.7,0.7,0,0,0-.6-0.8h0Z" transform="translate(-18.9 -43.3)" fill="#343434"/><path d="M80.8,71.8a0.5,0.5,0,0,1,0-.8h1.4V70.6H80.8a0.7,0.7,0,0,0-.6.8h0a0.7,0.7,0,0,0,.6.8h1.4V71.8H80.8Z" transform="translate(-18.9 -43.3)" fill="#343434"/><path d="M83.6,76.7H82.2v0.4h1.4a0.5,0.5,0,0,1,.1.7H82.2v0.4h1.4a0.7,0.7,0,0,0,.6-0.8h0a0.7,0.7,0,0,0-.6-0.8h0Z" transform="translate(-18.9 -43.3)" fill="#343434"/><path d="M80.8,77.9a0.5,0.5,0,0,1,0-.8h1.4V76.7H80.8a0.7,0.7,0,0,0-.6.8h0a0.7,0.7,0,0,0,.6.8h1.4V77.9H80.8Z" transform="translate(-18.9 -43.3)" fill="#343434"/><path d="M83.5,82.8H82.1v0.4h1.4a0.5,0.5,0,0,1,0,.8H82.1v0.4h1.4a0.7,0.7,0,0,0,.6-0.8h0a0.7,0.7,0,0,0-.6-0.8h0Z" transform="translate(-18.9 -43.3)" fill="#343434"/><path d="M80.8,84a0.5,0.5,0,0,1,0-.8h1.4V82.8H80.8a0.7,0.7,0,0,0-.6.8h0a0.7,0.7,0,0,0,.6.8h1.4V84H80.8Z" transform="translate(-18.9 -43.3)" fill="#343434"/><path d="M83.5,88.8H82.1v0.4h1.4a0.5,0.5,0,0,1,0,.8H82.1v0.4h1.4a0.7,0.7,0,0,0,.6-0.8h0a0.7,0.7,0,0,0-.6-0.8h0Z" transform="translate(-18.9 -43.3)" fill="#343434"/><path d="M80.7,90a0.5,0.5,0,0,1,0-.8h1.4V88.8H80.7a0.7,0.7,0,0,0-.6.8h0a0.7,0.7,0,0,0,.6.8h1.4V90H80.7Z" transform="translate(-18.9 -43.3)" fill="#343434"/><path d="M83.5,94.9H82.1v0.4h1.4a0.5,0.5,0,0,1,0,.8H82.1v0.4h1.4a0.7,0.7,0,0,0,.6-0.8h0a0.7,0.7,0,0,0-.6-0.8h0Z" transform="translate(-18.9 -43.3)" fill="#343434"/><path d="M80.7,96.1a0.5,0.5,0,0,1,0-.8h1.4V94.9H80.7a0.7,0.7,0,0,0-.6.8h0a0.7,0.7,0,0,0,.6.8h1.4V96.1H80.7Z" transform="translate(-18.9 -43.3)" fill="#343434"/><path d="M83.5,101H82.1v0.4h1.4a0.5,0.5,0,0,1,0,.8H82.1v0.4h1.4a0.7,0.7,0,0,0,.6-0.8h0a0.7,0.7,0,0,0-.6-0.8h0Z" transform="translate(-18.9 -43.3)" fill="#343434"/><path d="M80.7,102.2a0.5,0.5,0,0,1-.1-0.7h1.5V101H80.7a0.7,0.7,0,0,0-.6.8h0a0.7,0.7,0,0,0,.6.8h1.4v-0.4H80.7Z" transform="translate(-18.9 -43.3)" fill="#343434"/><path d="M80.7,108.3a0.5,0.5,0,0,1,0-.8h1.4v-0.4H80.7a0.7,0.7,0,0,0-.6.8h0a0.7,0.7,0,0,0,.6.8h1.4v-0.4H80.7Z" transform="translate(-18.9 -43.3)" fill="#343434"/><path d="M83.4,107H82v0.4h1.4a0.5,0.5,0,0,1,0,.8H82v0.5h1.4a0.7,0.7,0,0,0,.6-0.8h0a0.7,0.7,0,0,0-.5-0.9H83.4Z" transform="translate(-18.9 -43.3)" fill="#343434"/><path d="M80.6,114.3a0.5,0.5,0,0,1-.1-0.7H82v-0.4H80.6a0.7,0.7,0,0,0-.6.8h0a0.7,0.7,0,0,0,.6.8H82v-0.4H80.6Z" transform="translate(-18.9 -43.3)" fill="#343434"/><path d="M83.4,113.1H82v0.4h1.4a0.5,0.5,0,0,1,.1.7H82v0.4h1.4a0.7,0.7,0,0,0,.6-0.8h0a0.7,0.7,0,0,0-.6-0.8h0Z" transform="translate(-18.9 -43.3)" fill="#343434"/><rect x="11.5" y="9" width="43.9" height="2.03" fill="#ced7d8"/><rect x="11.5" y="13.4" width="43.9" height="2.03" fill="#ced7d8"/><rect x="11.5" y="17.8" width="43.9" height="2.03" fill="#ced7d8"/><rect x="11.5" y="22.2" width="43.9" height="2.03" fill="#ced7d8"/><rect x="11.5" y="26.6" width="43.9" height="2.03" fill="#ced7d8"/><rect x="11.5" y="31" width="43.9" height="2.03" fill="#ced7d8"/><rect x="11.5" y="35.4" width="43.9" height="2.03" fill="#ced7d8"/><rect x="11.5" y="39.8" width="43.9" height="2.02" fill="#ced7d8"/><rect x="11.5" y="44.2" width="43.9" height="2.02" fill="#ced7d8"/><rect x="11.9" y="53.2" width="43.9" height="2.03" fill="#ced7d8"/><rect x="11.9" y="57.6" width="43.9" height="2.03" fill="#ced7d8"/><rect x="11.9" y="62" width="43.9" height="2.03" fill="#ced7d8"/><path d="M146,47.4a3.7,3.7,0,0,0-3.9-3.5h-1.5V62.8H142a3.8,3.8,0,0,0,4-3.5V47.4Z" transform="translate(-18.9 -43.3)" fill="#44c68e"/><path d="M145.9,60.9a3.7,3.7,0,0,0-3.9-3.5h-1.5V76.3h1.4a3.8,3.8,0,0,0,4-3.5V60.9Z" transform="translate(-18.9 -43.3)" fill="#df3428"/><path d="M145.8,74.2a3.7,3.7,0,0,0-3.9-3.5h-1.5V89.6h1.4a3.8,3.8,0,0,0,4-3.5V74.2Z" transform="translate(-18.9 -43.3)" fill="#ffae00"/><polygon points="64.7 0.8 64.3 82.8 107 82.7 122.1 72.7 122.4 0.6 64.7 0.8" fill="#fff"/><path d="M133.1,114.7c0.7,6-7.2,11.3-7.2,11.3L141,116C135.9,117.8,133.1,114.7,133.1,114.7Z" transform="translate(-18.9 -43.3)" fill="#c8cacd"/><path d="M85.7,112.6a1.6,1.6,0,0,0-.1,3.1h0.1a1.6,1.6,0,0,0,.1-3.1H85.7Z" transform="translate(-18.9 -43.3)" fill="#726657"/><path d="M86,115.3a1.5,1.5,0,0,1-1.5-1.5,1.6,1.6,0,0,1,.2-0.7,1.5,1.5,0,1,0,2.3,1.8A1.5,1.5,0,0,1,86,115.3Z" transform="translate(-18.9 -43.3)" fill="#8c8e90"/><path d="M85.8,106.5a1.5,1.5,0,1,0,1.5,1.5A1.5,1.5,0,0,0,85.8,106.5Z" transform="translate(-18.9 -43.3)" fill="#726657"/><path d="M86,109.2a1.5,1.5,0,0,1-1.5-1.5,1.6,1.6,0,0,1,.2-0.7,1.5,1.5,0,1,0,2.4,1.8A1.5,1.5,0,0,1,86,109.2Z" transform="translate(-18.9 -43.3)" fill="#8c8e90"/><path d="M85.8,100.4a1.5,1.5,0,1,0,1.5,1.5A1.5,1.5,0,0,0,85.8,100.4Z" transform="translate(-18.9 -43.3)" fill="#726657"/><path d="M86.1,103.1a1.5,1.5,0,0,1-1.5-1.5,1.6,1.6,0,0,1,.2-0.7,1.6,1.6,0,0,0-.4,1.1,1.5,1.5,0,0,0,2.8.7A1.5,1.5,0,0,1,86.1,103.1Z" transform="translate(-18.9 -43.3)" fill="#8c8e90"/><path d="M85.8,94.3a1.5,1.5,0,1,0,1.5,1.5A1.5,1.5,0,0,0,85.8,94.3Z" transform="translate(-18.9 -43.3)" fill="#726657"/><path d="M86.1,97a1.5,1.5,0,0,1-1.3-2.2,1.6,1.6,0,0,0-.4,1.1,1.5,1.5,0,0,0,2.8.7A1.5,1.5,0,0,1,86.1,97Z" transform="translate(-18.9 -43.3)" fill="#8c8e90"/><path d="M85.9,88.2a1.5,1.5,0,1,0,1.5,1.5A1.5,1.5,0,0,0,85.9,88.2Z" transform="translate(-18.9 -43.3)" fill="#726657"/><path d="M86.1,90.8a1.5,1.5,0,0,1-1.5-1.5,1.6,1.6,0,0,1,.2-0.7,1.6,1.6,0,0,0-.4,1.1,1.5,1.5,0,0,0,2.8.7A1.5,1.5,0,0,1,86.1,90.8Z" transform="translate(-18.9 -43.3)" fill="#8c8e90"/><path d="M85.9,82.1a1.5,1.5,0,1,0,1.5,1.5A1.5,1.5,0,0,0,85.9,82.1Z" transform="translate(-18.9 -43.3)" fill="#726657"/><path d="M86.1,84.7a1.5,1.5,0,0,1-1.5-1.5,1.6,1.6,0,0,1,.2-0.7,1.6,1.6,0,0,0-.4,1.1,1.5,1.5,0,0,0,2.8.7A1.5,1.5,0,0,1,86.1,84.7Z" transform="translate(-18.9 -43.3)" fill="#8c8e90"/><path d="M85.9,76a1.5,1.5,0,1,0,1.5,1.5A1.5,1.5,0,0,0,85.9,76Z" transform="translate(-18.9 -43.3)" fill="#726657"/><path d="M86.2,78.6a1.5,1.5,0,0,1-1.3-2.2,1.5,1.5,0,1,0,2.4,1.8A1.5,1.5,0,0,1,86.2,78.6Z" transform="translate(-18.9 -43.3)" fill="#8c8e90"/><path d="M85.9,69.8a1.5,1.5,0,1,0,1.5,1.5A1.5,1.5,0,0,0,85.9,69.8Z" transform="translate(-18.9 -43.3)" fill="#726657"/><path d="M86.2,72.5A1.5,1.5,0,0,1,84.7,71a1.6,1.6,0,0,1,.2-0.7,1.6,1.6,0,0,0-.4,1.1,1.5,1.5,0,0,0,2.8.7A1.5,1.5,0,0,1,86.2,72.5Z" transform="translate(-18.9 -43.3)" fill="#8c8e90"/><path d="M86,63.7a1.5,1.5,0,1,0,1.5,1.5A1.5,1.5,0,0,0,86,63.7Z" transform="translate(-18.9 -43.3)" fill="#726657"/><path d="M86.2,66.4a1.5,1.5,0,0,1-1.5-1.5,1.6,1.6,0,0,1,.2-0.7,1.6,1.6,0,0,0-.4,1.1,1.5,1.5,0,0,0,2.8.7A1.5,1.5,0,0,1,86.2,66.4Z" transform="translate(-18.9 -43.3)" fill="#8c8e90"/><path d="M86,57.6a1.5,1.5,0,1,0,1.5,1.5A1.5,1.5,0,0,0,86,57.6Z" transform="translate(-18.9 -43.3)" fill="#726657"/><path d="M86.3,60.3A1.5,1.5,0,0,1,85,58.1a1.5,1.5,0,1,0,2.4,1.8A1.5,1.5,0,0,1,86.3,60.3Z" transform="translate(-18.9 -43.3)" fill="#8c8e90"/><path d="M86,51.5A1.5,1.5,0,1,0,87.5,53,1.5,1.5,0,0,0,86,51.5Z" transform="translate(-18.9 -43.3)" fill="#726657"/><path d="M86.3,54.2a1.5,1.5,0,0,1-1.5-1.5A1.6,1.6,0,0,1,85,52a1.6,1.6,0,0,0-.4,1.1,1.5,1.5,0,0,0,2.8.7A1.5,1.5,0,0,1,86.3,54.2Z" transform="translate(-18.9 -43.3)" fill="#8c8e90"/><path d="M82.4,53.6a0.5,0.5,0,0,1,0-.8h1.4V52.4H82.4a0.7,0.7,0,0,0-.6.8h0a0.7,0.7,0,0,0,.6.8h1.4V53.6H82.4Z" transform="translate(-18.9 -43.3)" fill="#343434"/><path d="M85.2,52.4H83.8v0.4h1.4a0.5,0.5,0,0,1,0,.8H83.8V54h1.4a0.7,0.7,0,0,0,.6-0.8h0a0.7,0.7,0,0,0-.6-0.8h0Z" transform="translate(-18.9 -43.3)" fill="#343434"/><path d="M85.2,58.5H83.8v0.4h1.4a0.5,0.5,0,0,1,0,.8H83.8v0.4h1.4a0.7,0.7,0,0,0,.6-0.8h0a0.7,0.7,0,0,0-.6-0.8h0Z" transform="translate(-18.9 -43.3)" fill="#343434"/><path d="M82.4,59.7a0.5,0.5,0,0,1,0-.8h1.4V58.5H82.4a0.7,0.7,0,0,0-.6.8h0a0.7,0.7,0,0,0,.6.8h1.4V59.7H82.4Z" transform="translate(-18.9 -43.3)" fill="#343434"/><path d="M82.4,65.8a0.5,0.5,0,0,1,0-.8h1.4V64.6H82.4a0.7,0.7,0,0,0-.6.8h0a0.7,0.7,0,0,0,.6.8h1.4V65.8H82.4Z" transform="translate(-18.9 -43.3)" fill="#343434"/><path d="M85.2,64.6H83.8V65h1.4a0.5,0.5,0,0,1,0,.8H83.8v0.4h1.4a0.7,0.7,0,0,0,.6-0.8h0a0.7,0.7,0,0,0-.6-0.8h0Z" transform="translate(-18.9 -43.3)" fill="#343434"/><path d="M82.4,71.8a0.5,0.5,0,0,1-.1-0.7h1.4V70.6H82.3a0.7,0.7,0,0,0-.6.8h0a0.7,0.7,0,0,0,.6.8h1.4V71.8H82.4Z" transform="translate(-18.9 -43.3)" fill="#343434"/><path d="M85.1,70.6H83.7V71h1.4a0.5,0.5,0,0,1,0,.8H83.7v0.4h1.4a0.7,0.7,0,0,0,.6-0.8h0a0.7,0.7,0,0,0-.6-0.8h0Z" transform="translate(-18.9 -43.3)" fill="#343434"/><path d="M82.3,77.9a0.5,0.5,0,0,1,0-.8h1.4V76.7H82.3a0.7,0.7,0,0,0-.6.8h0a0.7,0.7,0,0,0,.6.8h1.4V77.9H82.3Z" transform="translate(-18.9 -43.3)" fill="#343434"/><path d="M85.1,76.7H83.7v0.4h1.4a0.5,0.5,0,0,1,0,.8H83.7v0.4h1.4a0.7,0.7,0,0,0,.6-0.8h0a0.7,0.7,0,0,0-.6-0.8h0Z" transform="translate(-18.9 -43.3)" fill="#343434"/><path d="M85.1,82.8H83.7v0.4h1.4a0.5,0.5,0,0,1,0,.8H83.7v0.4h1.4a0.7,0.7,0,0,0,.6-0.8h0a0.7,0.7,0,0,0-.6-0.8h0Z" transform="translate(-18.9 -43.3)" fill="#343434"/><path d="M82.3,84a0.5,0.5,0,0,1,0-.8h1.4V82.8H82.3a0.7,0.7,0,0,0-.6.8h0a0.7,0.7,0,0,0,.6.8h1.4V84H82.3Z" transform="translate(-18.9 -43.3)" fill="#343434"/><path d="M82.3,90a0.5,0.5,0,0,1-.1-0.7h1.5V88.8H82.3a0.7,0.7,0,0,0-.6.8h0a0.7,0.7,0,0,0,.6.8h1.4V90H82.3Z" transform="translate(-18.9 -43.3)" fill="#343434"/><path d="M85,88.8H83.7v0.4h1.4a0.3,0.3,0,0,1,.2.4h0a0.4,0.4,0,0,1-.2.4H83.7v0.4h1.4a0.7,0.7,0,0,0,.6-0.8h0a0.7,0.7,0,0,0-.6-0.8H85Z" transform="translate(-18.9 -43.3)" fill="#343434"/><path d="M85,94.9H83.6v0.4H85a0.5,0.5,0,0,1,0,.8H83.6v0.4H85a0.7,0.7,0,0,0,.6-0.8h0a0.7,0.7,0,0,0-.6-0.8h0Z" transform="translate(-18.9 -43.3)" fill="#343434"/><path d="M82.2,96.1a0.5,0.5,0,0,1,0-.8h1.4V94.9H82.2a0.7,0.7,0,0,0-.6.8h0a0.7,0.7,0,0,0,.6.8h1.4V96.1H82.2Z" transform="translate(-18.9 -43.3)" fill="#343434"/><path d="M82.2,102.2a0.5,0.5,0,0,1,0-.8h1.4V101H82.2a0.7,0.7,0,0,0-.6.8h0a0.7,0.7,0,0,0,.6.8h1.4v-0.4H82.2Z" transform="translate(-18.9 -43.3)" fill="#343434"/><path d="M85,101H83.6v0.4H85a0.5,0.5,0,0,1,0,.8H83.6v0.4H85a0.7,0.7,0,0,0,.6-0.8h0A0.7,0.7,0,0,0,85,101h0Z" transform="translate(-18.9 -43.3)" fill="#343434"/><path d="M85,107H83.6v0.4H85a0.3,0.3,0,0,1,.2.4h0a0.4,0.4,0,0,1-.2.4H83.6v0.5H85a0.7,0.7,0,0,0,.6-0.8h0a0.7,0.7,0,0,0-.5-0.9H85Z" transform="translate(-18.9 -43.3)" fill="#343434"/><path d="M82.2,108.2a0.5,0.5,0,0,1,0-.8h1.4V107H82.2a0.7,0.7,0,0,0-.6.8h0a0.7,0.7,0,0,0,.6.8h1.4v-0.4H82.2Z" transform="translate(-18.9 -43.3)" fill="#343434"/><path d="M84.9,113.1H83.5v0.4h1.4a0.5,0.5,0,0,1,0,.8H83.5v0.4h1.4a0.7,0.7,0,0,0,.6-0.8h0a0.7,0.7,0,0,0-.6-0.8h0Z" transform="translate(-18.9 -43.3)" fill="#343434"/><path d="M82.1,114.3a0.5,0.5,0,0,1,0-.8h1.4v-0.4H82.1a0.7,0.7,0,0,0-.6.8h0a0.7,0.7,0,0,0,.6.8h1.4v-0.4H82.1Z" transform="translate(-18.9 -43.3)" fill="#343434"/><rect x="72.9" y="10.1" width="43.9" height="2.03" fill="#ced7d8"/><rect x="72.9" y="14.5" width="43.9" height="2.03" fill="#ced7d8"/><rect x="72.9" y="18.9" width="43.9" height="2.03" fill="#ced7d8"/><rect x="72.9" y="23.3" width="43.9" height="2.03" fill="#ced7d8"/><rect x="72.9" y="27.7" width="43.9" height="2.03" fill="#ced7d8"/><rect x="72.9" y="32.1" width="43.9" height="2.03" fill="#ced7d8"/><rect x="72.9" y="36.6" width="43.9" height="2.03" fill="#ced7d8"/><rect x="72.9" y="41" width="43.9" height="2.03" fill="#ced7d8"/><rect x="72.9" y="45.4" width="43.9" height="2.03" fill="#ced7d8"/><path d="M59.6,84.3l-4.8,5.9c-0.2.2-.4,0.1-0.5-0.2l-0.6-2.6a1.4,1.4,0,0,1,.2-1.1l4.8-5.9c0.2-.2.4-0.1,0.5,0.2l0.6,2.6A1.4,1.4,0,0,1,59.6,84.3Z" transform="translate(-18.9 -43.3)" fill="#2c577d"/><path d="M59,86.1l-6.6,8.1a0.7,0.7,0,0,1-1,.1h0l-2.3-1.9a0.7,0.7,0,0,1-.1-1h0l6.6-8.1a0.7,0.7,0,0,1,1-.1h0l2.3,1.9a0.7,0.7,0,0,1,.1,1h0Z" transform="translate(-18.9 -43.3)" fill="#ffd47d"/><path d="M57.6,92.6l-22,27.1a1.8,1.8,0,0,1-2.5.3l-5.5-4.5a1.8,1.8,0,0,1-.3-2.5l22-27.1c1.3-1.6,3.9-1.1,4.4-.7l3.6,3A3.5,3.5,0,0,1,57.6,92.6Z" transform="translate(-18.9 -43.3)" fill="#ffd47d"/><path d="M57.9,94.5L37.4,119.6a1.3,1.3,0,0,1-1.8.2l-8.4-6.9a1.3,1.3,0,0,1-.2-1.8L47.5,86a1.3,1.3,0,0,1,1.8-.2l8.4,6.9A1.3,1.3,0,0,1,57.9,94.5Z" transform="translate(-18.9 -43.3)" fill="#bc1919"/><rect x="26.9" y="95.7" width="31.3" height="13.37" transform="translate(-82.6 27.5) rotate(-50.9)" fill="#fe0000"/><path d="M75.4,73l-7.6,9.3a1.3,1.3,0,0,1-1.8.2l-8.4-6.9a1.3,1.3,0,0,1-.2-1.8L65,64.5a1.3,1.3,0,0,1,1.8-.2l8.4,6.9A1.3,1.3,0,0,1,75.4,73Z" transform="translate(-18.9 -43.3)" fill="#bc1919"/><rect x="60.7" y="66.4" width="13.6" height="10.75" rx="1" ry="1" transform="translate(-49.7 35.6) rotate(-50.9)" fill="#fe0000"/></svg>