<?xml version="1.0" encoding="utf-8"?>
<!-- Generator: Adobe Illustrator 16.0.0, SVG Export Plug-In . SVG Version: 6.00 Build 0)  -->
<!DOCTYPE svg PUBLIC "-//W3C//DTD SVG 1.1//EN" "http://www.w3.org/Graphics/SVG/1.1/DTD/svg11.dtd">
<svg version="1.1" id="Layer_1" xmlns="http://www.w3.org/2000/svg" xmlns:xlink="http://www.w3.org/1999/xlink" x="0px" y="0px"
	 width="177.176px" height="40.916px" viewBox="0 0 177.176 40.916" enable-background="new 0 0 177.176 40.916"
	 xml:space="preserve">
<g>
	<polygon fill="#FFFFFF" points="28.452,-0.083 24.868,-0.083 22.356,-0.083 17.106,17.563 11.857,-0.083 9.345,-0.083
		5.761,-0.083 1.874,-0.083 0,30.701 7.791,30.701 8.842,9.875 13.66,25.451 14.76,25.451 19.453,25.451 20.553,25.451
		25.371,9.875 26.422,30.701 34.213,30.701 32.34,-0.083 	"/>
	<path fill="#FFFFFF" d="M147.861,0h-2.373l-5.418,4.436v2.422h-2.494v3.986h2.494v8.267v2.319c0,6.277,1.729,9.287,8.562,9.287
		h3.754v-5.295c-2.574,0-4.508-0.775-4.508-2.918V20.66l-0.018-0.004v-9.812h4.525V6.858h-4.525V0z"/>
	<path fill="#FFFFFF" d="M127.207,6.481c-3.709,0-5.629,2.212-6.225,3.053h-0.521l-1.121-2.674h-6.074v23.857h7.787V14.385
		c0.197-1.298,1.307-2.232,2.713-2.232c1.389,0,2.182,0.638,2.182,2.357v16.207h7.791V16.445c0,0,0-0.818,0-1.639
		C133.738,10.66,132.605,6.481,127.207,6.481z"/>
	<path fill="#FFFFFF" d="M75.701,9.534h-0.484c-0.494-0.84-2.146-3.053-5.855-3.053c-5.569,0-6.937,4.179-6.937,8.325
		c0,0.821,0,1.639,0,1.639v4.69c0,0,0,0.818,0,1.639c0,4.146,1.368,8.324,6.937,8.324c3.476,0,5.145-1.941,5.748-2.877v2.488
		c0,5.303-5.215,5.342-9.559,4.059l-1.533,4.912c0.773,0.297,3.395,1.236,8.271,1.236c4.486,0,10.608-2.713,10.608-12.736V6.859
		h-6.074L75.701,9.534z M72.722,25.426c-1.389,0-2.507-0.637-2.507-2.357V14.51c0-1.719,1.118-2.357,2.507-2.357
		c1.405,0,2.388,0.717,2.388,2.232v8.808C75.109,24.709,74.127,25.426,72.722,25.426z"/>
	<path fill="#FFFFFF" d="M49.807,17.321l-1.314,6.284l-0.529-3.584l-3.075-13.17h-7.803l8.173,25.688
		c-0.656,1.707-2.068,2.857-4.463,2.857c-1.093,0-1.921-0.076-1.921-0.076v5.303c0,0,0.456,0.293,3.667,0.293
		c7.539,0,9.316-7.637,9.957-9.246l7.218-24.939h-7.791L49.807,17.321z"/>
	<path fill="#FFFFFF" d="M166.297,6.475c-6.551,0-10.902,3.855-10.902,11.617v1.393c0,7.762,4.352,11.616,10.902,11.616
		s10.904-3.854,10.904-11.616v-1.393C177.201,10.33,172.848,6.475,166.297,6.475z M166.297,25.436c-2.016,0-3.113-1.928-3.113-4.756
		v-3.784c0-2.827,1.098-4.755,3.113-4.755s3.113,1.928,3.113,4.755v3.784C169.41,23.508,168.312,25.436,166.297,25.436z"/>
	<path fill="#FFFFFF" d="M98.096,6.475c-6.909,0-10.541,4.305-10.541,11.617v1.393c0,7.311,3.632,11.616,10.541,11.616
		c5.869,0,9.373-3.107,10.295-8.523h-7.709c-0.312,1.646-1.102,2.859-2.586,2.859c-2.016,0-2.75-2.234-2.75-4.756v-0.496h13.291
		v-2.092C108.637,10.78,105.006,6.475,98.096,6.475z M98.096,12.141c1.828,0,2.6,1.836,2.73,4.057h-5.459
		C95.496,13.977,96.27,12.141,98.096,12.141z"/>
</g>
</svg>
